<svg width="57" height="57" viewBox="0 0 57 57" fill="none" xmlns="http://www.w3.org/2000/svg">
<rect width="57" height="57" rx="3" fill="#2E3440"/>
<path d="M19.0121 12.2704C20.7819 11.3397 22.755 10.8624 24.7545 10.8815C28.9935 10.8815 31.6938 12.7249 32.8554 16.4118C34.1934 14.8351 35.7993 13.507 37.5991 12.4888C39.4619 11.4173 41.5384 10.8815 43.8288 10.8815C47.0081 10.8815 49.2808 11.8529 50.647 13.7956C52.0132 15.7384 52.6954 18.655 52.6936 22.5455V44.5151C52.6936 45.0643 52.7707 45.4368 52.9248 45.6363C53.0788 45.8358 53.4121 46.015 53.9247 46.159L55.7239 46.7575V48.1022H45.0586C44.1327 48.1022 43.4665 47.7532 43.0599 47.0554C42.6533 46.3576 42.4479 45.3113 42.4437 43.9166V21.2009C42.4437 18.9585 42.1958 17.3642 41.7001 16.4181C41.2043 15.472 40.3756 14.9985 39.2139 14.9976C37.368 14.9976 35.4025 16.0919 33.3176 18.2804C33.5358 19.6915 33.6396 21.1178 33.6282 22.5455V44.5151C33.6282 45.0643 33.7052 45.4368 33.8592 45.6363C34.0133 45.8358 34.3466 46.015 34.8592 46.159L36.6534 46.7575V48.1022H25.9855C25.0596 48.1022 24.393 47.7532 23.9856 47.0554C23.5782 46.3576 23.3728 45.3113 23.3694 43.9166V21.2009C23.3694 18.9585 23.122 17.3642 22.627 16.4181C22.132 15.472 21.3029 14.9985 20.1397 14.9976C18.3274 14.9976 16.4646 15.9942 14.5513 17.9875V44.5151C14.5513 45.0643 14.6271 45.4494 14.7811 45.6729C14.9351 45.8964 15.2508 46.0845 15.7306 46.2335L17.473 46.7575V48.1022H1.27112V46.7575L3.0653 46.159C3.57792 46.01 3.91125 45.8358 4.06529 45.6363C4.21933 45.4368 4.29635 45.0643 4.29635 44.5151V16.2691C4.29635 15.7211 4.21933 15.3474 4.06529 15.1479C3.91125 14.9484 3.57792 14.7737 3.0653 14.6239L1.27112 14.0267V12.682L13.5766 10.4396H14.4478V15.6706C15.7792 14.3023 17.3199 13.1545 19.0121 12.2704V12.2704Z" fill="white"/>
</svg>
