<svg width="317" height="137" viewBox="0 0 317 137" fill="none" xmlns="http://www.w3.org/2000/svg">
<path d="M80.345 59H86.065V16.23H80.345V59ZM99.3545 59H104.424L103.774 23.315L131.204 59H135.819V16.23H130.814L131.334 50.42L104.944 16.23H99.3545V59ZM149.108 59H154.828V16.23H149.108V59ZM168.117 59H173.642V40.995H190.997V36.575H173.642V20.65H193.467V16.23H168.117V59ZM202.308 59H229.673V54.645H207.833V16.23H202.308V59ZM253.646 59.65C264.696 59.65 271.911 52.37 271.911 41.125V16.23H267.101V42.36C267.101 50.03 262.421 55.165 254.621 55.165C246.691 55.165 241.751 49.835 241.751 41.125V16.23H236.096V42.23C236.096 52.89 243.116 59.65 253.646 59.65ZM278.83 59H285.135L296.965 41.19L309.38 59H316.14L300.54 36.965L315.36 16.23H309.12L297.875 33.39L286.305 16.23H279.545L294.365 37.615L278.83 59Z" fill="#2E3440"/>
<rect x="7" y="8" width="56" height="56" rx="3" fill="#2E3440"/>
<path d="M25.6786 20.0551C27.4173 19.1407 29.3558 18.6719 31.3202 18.6906C35.4849 18.6906 38.1378 20.5017 39.279 24.1238C40.5935 22.5748 42.1712 21.27 43.9395 20.2697C45.7696 19.217 47.8097 18.6906 50.0599 18.6906C53.1834 18.6906 55.4162 19.6449 56.7584 21.5536C58.1006 23.4623 58.7709 26.3277 58.7692 30.15V51.7341C58.7692 52.2737 58.8449 52.6396 58.9963 52.8356C59.1476 53.0316 59.4751 53.2077 59.9787 53.3492L61.7463 53.9371V55.2582H51.2681C50.3585 55.2582 49.7039 54.9155 49.3045 54.2299C48.905 53.5443 48.7033 52.5164 48.6991 51.1461V28.8289C48.6991 26.6258 48.4556 25.0595 47.9685 24.13C47.4814 23.2005 46.6673 22.7353 45.526 22.7345C43.7124 22.7345 41.7815 23.8096 39.733 25.9597C39.9474 27.346 40.0495 28.7473 40.0382 30.15V51.7341C40.0382 52.2737 40.1139 52.6396 40.2652 52.8356C40.4166 53.0316 40.744 53.2077 41.2477 53.3492L43.0104 53.9371V55.2582H32.5297C31.62 55.2582 30.965 54.9155 30.5648 54.2299C30.1645 53.5443 29.9627 52.5164 29.9594 51.1461V28.8289C29.9594 26.6258 29.7163 25.0595 29.23 24.13C28.7438 23.2005 27.9292 22.7353 26.7863 22.7345C25.0058 22.7345 23.1757 23.7136 21.296 25.6719V51.7341C21.296 52.2737 21.3705 52.652 21.5218 52.8716C21.6731 53.0911 21.9832 53.276 22.4546 53.4223L24.1665 53.9371V55.2582H8.24883V53.9371L10.0115 53.3492C10.5152 53.2028 10.8426 53.0316 10.994 52.8356C11.1453 52.6396 11.221 52.2737 11.221 51.7341V23.9837C11.221 23.4453 11.1453 23.0781 10.994 22.8821C10.8426 22.6861 10.5152 22.5145 10.0115 22.3673L8.24883 21.7806V20.4595L20.3384 18.2564H21.1943V23.3957C22.5024 22.0513 24.0161 20.9237 25.6786 20.0551Z" fill="white"/>
<path d="M7.345 118H13.065V75.23H7.345V118ZM28.3045 118H33.3745L32.7245 82.315L60.1545 118H64.7695V75.23H59.7645L60.2845 109.42L33.8945 75.23H28.3045V118ZM80.7879 114.75C80.7879 122.875 77.7329 126.125 72.2079 128.14L73.5729 131.39C81.1129 129.375 86.3129 125.215 86.3129 114.75V75.23H80.7879V114.75ZM128.393 118V113.58H106.488V98.435H123.843V94.145H106.488V79.65H126.313V75.23H101.158V118H128.393ZM158.559 118.65C164.019 118.65 168.894 117.155 173.184 114.295L170.779 109.94C167.789 112.865 163.759 114.62 159.014 114.62C149.784 114.62 142.504 107.34 142.504 96.225C142.504 85.695 148.549 78.74 158.169 78.74C162.524 78.74 166.294 80.17 169.999 83.095L172.599 78.22C168.569 75.815 164.084 74.58 159.404 74.58C146.404 74.58 136.524 83.355 136.524 97.135C136.524 110.005 145.429 118.65 158.559 118.65ZM193.81 118H199.465V79.585H215.26V75.23H178.08V79.585H193.81V118ZM241.115 118.65C253.465 118.65 263.54 109.745 263.54 96.355C263.54 83.68 254.505 74.58 242.025 74.58C229.61 74.58 219.47 83.485 219.47 96.875C219.47 109.485 228.57 118.65 241.115 118.65ZM225.58 96.03C225.58 85.63 231.885 78.675 240.92 78.675C250.345 78.675 257.625 86.02 257.625 97.2C257.625 107.535 251.385 114.555 242.09 114.555C232.795 114.555 225.58 107.21 225.58 96.03ZM275.048 118H280.443V99.995H286.033C286.618 99.995 287.138 99.995 287.658 99.93L295.003 110.395C299.163 116.44 302.283 118.585 307.548 118.585C309.368 118.585 311.188 118.325 313.528 117.48L312.423 114.295C311.318 114.62 310.148 114.685 309.433 114.685C306.573 114.685 304.103 113.32 300.203 108.445L292.468 98.63C297.668 96.29 301.568 91.415 301.568 86.085C301.568 79.325 295.913 75.23 286.878 75.23H275.048V118ZM280.443 96.03V79.325H286.423C292.598 79.325 295.978 82.315 295.978 86.995C295.978 91.805 291.623 96.03 286.748 96.03H280.443Z" fill="#2E3440"/>
</svg>
