<svg width="639" height="73" viewBox="0 0 639 73" fill="none" xmlns="http://www.w3.org/2000/svg">
<path d="M72.345 59H78.065V16.23H72.345V59ZM91.3545 59H96.4245L95.7745 23.315L123.204 59H127.819V16.23H122.814L123.334 50.42L96.9445 16.23H91.3545V59ZM141.108 59H146.828V16.23H141.108V59ZM160.117 59H165.642V40.995H182.997V36.575H165.642V20.65H185.467V16.23H160.117V59ZM194.308 59H221.673V54.645H199.833V16.23H194.308V59ZM245.646 59.65C256.696 59.65 263.911 52.37 263.911 41.125V16.23H259.101V42.36C259.101 50.03 254.421 55.165 246.621 55.165C238.691 55.165 233.751 49.835 233.751 41.125V16.23H228.096V42.23C228.096 52.89 235.116 59.65 245.646 59.65ZM270.83 59H277.135L288.965 41.19L301.38 59H308.14L292.54 36.965L307.36 16.23H301.12L289.875 33.39L278.305 16.23H271.545L286.365 37.615L270.83 59ZM346.295 59H352.015V16.23H346.295V59ZM365.304 59H370.374L369.724 23.315L397.154 59H401.769V16.23H396.764L397.284 50.42L370.894 16.23H365.304V59ZM415.837 55.75C415.837 63.875 412.782 67.125 407.257 69.14L408.622 72.39C416.162 70.375 421.362 66.215 421.362 55.75V16.23H415.837V55.75ZM461.492 59V54.58H439.587V39.435H456.942V35.145H439.587V20.65H459.412V16.23H434.257V59H461.492ZM489.709 59.65C495.169 59.65 500.044 58.155 504.334 55.295L501.929 50.94C498.939 53.865 494.909 55.62 490.164 55.62C480.934 55.62 473.654 48.34 473.654 37.225C473.654 26.695 479.699 19.74 489.319 19.74C493.674 19.74 497.444 21.17 501.149 24.095L503.749 19.22C499.719 16.815 495.234 15.58 490.554 15.58C477.554 15.58 467.674 24.355 467.674 38.135C467.674 51.005 476.579 59.65 489.709 59.65ZM523.01 59H528.665V20.585H544.46V16.23H507.28V20.585H523.01V59ZM568.365 59.65C580.715 59.65 590.79 50.745 590.79 37.355C590.79 24.68 581.755 15.58 569.275 15.58C556.86 15.58 546.72 24.485 546.72 37.875C546.72 50.485 555.82 59.65 568.365 59.65ZM552.83 37.03C552.83 26.63 559.135 19.675 568.17 19.675C577.595 19.675 584.875 27.02 584.875 38.2C584.875 48.535 578.635 55.555 569.34 55.555C560.045 55.555 552.83 48.21 552.83 37.03ZM600.348 59H605.743V40.995H611.333C611.918 40.995 612.438 40.995 612.958 40.93L620.303 51.395C624.463 57.44 627.583 59.585 632.848 59.585C634.668 59.585 636.488 59.325 638.828 58.48L637.723 55.295C636.618 55.62 635.448 55.685 634.733 55.685C631.873 55.685 629.403 54.32 625.503 49.445L617.768 39.63C622.968 37.29 626.868 32.415 626.868 27.085C626.868 20.325 621.213 16.23 612.178 16.23H600.348V59ZM605.743 37.03V20.325H611.723C617.898 20.325 621.278 23.315 621.278 27.995C621.278 32.805 616.923 37.03 612.048 37.03H605.743Z" fill="#2E3440"/>
<rect y="8" width="56" height="56" rx="3" fill="#2E3440"/>
<path d="M18.6786 20.0551C20.4173 19.1407 22.3558 18.6719 24.3202 18.6906C28.4849 18.6906 31.1378 20.5017 32.279 24.1238C33.5935 22.5748 35.1712 21.2701 36.9395 20.2697C38.7696 19.217 40.8097 18.6906 43.0599 18.6906C46.1834 18.6906 48.4162 19.6449 49.7584 21.5536C51.1006 23.4623 51.7709 26.3277 51.7692 30.15V51.7341C51.7692 52.2737 51.8449 52.6396 51.9963 52.8356C52.1476 53.0316 52.475 53.2078 52.9787 53.3492L54.7463 53.9371V55.2583H44.2681C43.3585 55.2583 42.7039 54.9155 42.3045 54.2299C41.905 53.5443 41.7032 52.5164 41.6991 51.1461V28.8289C41.6991 26.6259 41.4556 25.0596 40.9685 24.13C40.4814 23.2005 39.6672 22.7354 38.526 22.7345C36.7124 22.7345 34.7814 23.8096 32.733 25.9597C32.9474 27.346 33.0495 28.7473 33.0382 30.15V51.7341C33.0382 52.2737 33.1139 52.6396 33.2652 52.8356C33.4166 53.0316 33.744 53.2078 34.2476 53.3492L36.0104 53.9371V55.2583H25.5297C24.62 55.2583 23.965 54.9155 23.5648 54.2299C23.1645 53.5443 22.9627 52.5164 22.9594 51.1461V28.8289C22.9594 26.6259 22.7163 25.0596 22.23 24.13C21.7438 23.2005 20.9292 22.7354 19.7863 22.7345C18.0058 22.7345 16.1757 23.7136 14.296 25.6719V51.7341C14.296 52.2737 14.3704 52.652 14.5218 52.8716C14.6731 53.0912 14.9832 53.276 15.4546 53.4224L17.1665 53.9371V55.2583H1.24882V53.9371L3.01152 53.3492C3.51515 53.2028 3.84263 53.0316 3.99397 52.8356C4.1453 52.6396 4.22097 52.2737 4.22097 51.7341V23.9837C4.22097 23.4453 4.14531 23.0781 3.99397 22.8821C3.84263 22.6861 3.51515 22.5145 3.01152 22.3673L1.24882 21.7806V20.4595L13.3384 18.2565H14.1943V23.3957C15.5024 22.0513 17.0161 20.9237 18.6786 20.0551V20.0551Z" fill="white"/>
</svg>
